# xmcd
#
# Track frame offsets: 
#        150
#        12250
#        25587
#        37045
#        48940
#        60905
#        71992
#        84657
#        97517
#        109080
#        121382
#        132705
#        143900
#        152845
#
# Disc length: 2235 seconds
#
# Revision: 1
# Processed by: cddbd v1.5.1PL2 Copyright (c) Steve Scherf et al.
# Submitted via: ExactAudioCopy v0.95b3
#
DISCID=b708b90e
DTITLE=Ray Charles - Alone In This City
DYEAR=1994
DGENRE=Rock and Roll
TTITLE0=I Love You, I Love You (I Will Never Let You Go)
TTITLE1=Alone In This City
TTITLE2=Let's Have A Ball
TTITLE3=If I Give You My Love
TTITLE4=Can't You See Darling
TTITLE5=A Sentimental Blues
TTITLE6=You'll Never Miss The Water ( Until The Well's Gone Dry)
TTITLE7=Don't Put All Your Dreams In One Basket
TTITLE8=What Have I Done
TTITLE9=Honey, Honey
TTITLE10=She's On The Ball
TTITLE11=I'll Do Anything But Work
TTITLE12=All To Myself
TTITLE13=I'm Wonderin' And Wonderin'
EXTD=
EXTT0=
EXTT1=
EXTT2=
EXTT3=
EXTT4=
EXTT5=
EXTT6=
EXTT7=
EXTT8=
EXTT9=
EXTT10=
EXTT11=
EXTT12=
EXTT13=
PLAYORDER=
